<?xml version="1.0" standalone="no"?>
<!DOCTYPE svg PUBLIC "-//W3C//DTD SVG 20010904//EN"
 "http://www.w3.org/TR/2001/REC-SVG-20010904/DTD/svg10.dtd">
<svg version="1.0" xmlns="http://www.w3.org/2000/svg"
 width="400.000000pt" height="400.000000pt" viewBox="0 0 400.000000 400.000000"
 preserveAspectRatio="xMidYMid meet">
<metadata>
Created by potrace 1.11, written by Peter Selinger 2001-2013
</metadata>
<g transform="translate(0.000000,400.000000) scale(0.100000,-0.100000)"
fill="#000000" stroke="none">
<path d="M1957 3843 c-3 -5 -25 -8 -49 -8 -23 0 -46 -4 -50 -10 -5 -6 -8 -4
-8 5 0 13 -1 13 -10 0 -9 -13 -10 -13 -10 0 0 13 -1 13 -10 0 -7 -11 -10 -11
-10 -2 0 10 -5 10 -20 2 -11 -6 -35 -11 -55 -12 -19 -1 -33 -4 -31 -7 2 -3
-20 -6 -49 -6 -29 0 -51 -3 -48 -7 2 -5 -10 -8 -26 -8 -17 0 -31 -3 -31 -7 0
-5 -14 -9 -32 -10 -17 -1 -35 -8 -40 -15 -6 -10 -8 -10 -8 2 0 9 -3 11 -8 5
-9 -13 -56 -39 -48 -27 3 5 -1 9 -9 9 -8 0 -12 -4 -10 -8 5 -8 -31 -22 -57
-22 -10 0 -18 -4 -18 -9 0 -5 -4 -6 -10 -3 -5 3 -10 2 -10 -4 0 -5 -10 -8 -21
-6 -12 3 -19 2 -15 -2 9 -9 -32 -35 -44 -28 -6 3 -13 0 -16 -9 -3 -8 -11 -13
-19 -10 -7 3 -19 -2 -28 -10 -8 -8 -17 -12 -21 -9 -3 4 -6 1 -6 -5 0 -7 -7
-12 -16 -12 -8 0 -12 -4 -9 -10 3 -5 0 -7 -8 -4 -7 2 -26 -8 -42 -23 -16 -15
-24 -21 -20 -13 5 8 -14 -2 -43 -23 -29 -21 -57 -35 -63 -32 -5 4 -8 3 -7 -2
3 -10 -33 -53 -45 -53 -17 0 -67 -42 -61 -51 3 -5 0 -8 -8 -7 -7 2 -12 -2 -11
-9 2 -7 -4 -10 -13 -6 -9 3 -14 0 -12 -8 2 -8 -3 -13 -9 -12 -7 2 -13 -4 -13
-13 0 -8 -4 -13 -9 -10 -5 3 -12 -1 -15 -10 -3 -8 -10 -12 -16 -9 -5 3 -10 -1
-10 -9 0 -9 -4 -16 -10 -16 -5 0 -15 -11 -22 -24 -7 -14 -16 -25 -20 -25 -5
-1 -8 -3 -8 -6 0 -11 -46 -50 -55 -47 -5 2 -7 1 -3 -3 4 -4 0 -14 -8 -22 -8
-8 -12 -19 -9 -24 4 -5 -1 -9 -9 -9 -8 0 -18 -9 -21 -20 -3 -11 -11 -20 -17
-20 -6 0 -9 -3 -6 -6 3 -3 -7 -19 -23 -36 -15 -17 -26 -35 -23 -40 3 -4 -2 -8
-11 -8 -9 0 -13 -4 -10 -10 8 -12 -25 -61 -36 -54 -5 3 -6 -2 -3 -10 4 -10 1
-16 -7 -16 -7 0 -9 -3 -6 -7 4 -3 -1 -15 -10 -26 -13 -15 -14 -19 -3 -13 13 7
13 6 0 -6 -20 -17 -44 -69 -41 -87 1 -8 -2 -10 -10 -5 -9 5 -10 2 -6 -9 3 -10
3 -17 -2 -17 -5 0 -15 -20 -22 -45 -7 -25 -17 -45 -22 -45 -4 0 -5 -4 -2 -10
3 -5 1 -10 -5 -10 -6 0 -8 -4 -5 -10 3 -5 -1 -23 -10 -40 -8 -16 -13 -30 -9
-30 4 0 0 -8 -7 -17 -12 -15 -12 -16 1 -8 13 8 13 7 1 -8 -7 -9 -11 -26 -8
-36 3 -13 0 -18 -7 -15 -8 3 -13 -6 -14 -26 -3 -51 -5 -60 -13 -60 -4 0 -6 -9
-4 -20 2 -11 -1 -22 -6 -26 -6 -3 -5 -12 3 -22 9 -10 9 -13 1 -9 -7 5 -12 1
-12 -10 0 -63 -4 -92 -11 -88 -9 5 -4 -71 6 -87 4 -6 3 -8 -3 -5 -7 5 -10 -8
-8 -38 1 -25 -2 -48 -7 -51 -4 -3 -6 -9 -3 -14 11 -18 12 -69 1 -74 -7 -3 -7
-5 1 -5 7 -1 10 -8 7 -16 -4 -9 0 -15 7 -15 9 0 10 -3 4 -8 -5 -4 -10 -14 -10
-22 0 -8 5 -18 10 -22 6 -5 5 -8 -3 -8 -8 0 -10 -5 -6 -12 4 -6 8 -27 10 -45
1 -19 5 -37 8 -40 3 -3 1 -12 -5 -20 -9 -10 -7 -13 7 -13 16 0 17 -2 4 -10 -8
-5 -10 -10 -4 -10 5 0 10 -18 9 -40 -1 -30 3 -40 14 -40 14 0 14 -1 1 -10 -8
-5 -10 -10 -5 -10 6 0 11 -8 11 -17 1 -10 5 -27 9 -37 7 -15 5 -18 -6 -12 -10
5 -9 4 1 -6 9 -7 14 -21 12 -30 -2 -10 1 -18 7 -18 6 0 11 -13 11 -30 0 -16 5
-30 10 -30 6 0 10 -8 10 -18 0 -10 6 -24 13 -31 10 -11 9 -12 -2 -6 -9 5 -7
-1 4 -19 10 -14 14 -26 11 -26 -4 0 0 -10 9 -23 8 -13 12 -27 8 -30 -3 -4 -1
-7 6 -7 7 0 9 -4 6 -10 -3 -5 -1 -10 5 -10 6 0 8 -4 5 -10 -3 -5 -1 -10 5 -10
7 0 10 -6 7 -14 -3 -7 4 -21 15 -30 11 -10 17 -24 14 -31 -3 -8 3 -20 12 -27
25 -19 44 -57 36 -71 -4 -7 -3 -9 1 -4 11 9 46 -43 38 -56 -3 -6 -1 -7 5 -3 6
3 13 -2 17 -13 3 -10 19 -32 35 -49 15 -17 26 -32 23 -35 -2 -3 5 -10 16 -17
12 -6 19 -15 16 -21 -4 -5 -1 -9 4 -9 6 0 11 -7 11 -15 0 -13 12 -19 32 -16 4
0 5 -6 2 -14 -4 -9 0 -15 9 -15 9 0 19 -5 23 -12 5 -7 3 -8 -7 -3 -12 8 -12 6
0 -8 7 -9 19 -17 25 -17 6 -1 20 -15 31 -32 11 -17 29 -36 40 -42 28 -16 45
-33 45 -46 0 -6 4 -9 8 -6 5 3 15 -4 22 -15 8 -10 20 -19 26 -19 7 0 15 -7 18
-16 3 -8 10 -13 14 -10 5 3 15 -4 22 -15 8 -10 20 -19 28 -19 7 0 15 -7 18
-15 4 -8 9 -13 13 -10 4 2 14 -5 21 -16 8 -10 22 -19 32 -19 10 0 18 -4 18
-10 0 -5 7 -10 16 -10 8 0 13 -4 9 -9 -3 -6 4 -8 15 -6 13 2 20 -1 20 -11 0
-8 5 -12 10 -9 6 3 10 1 10 -5 0 -6 5 -8 10 -5 6 3 10 1 10 -4 0 -6 9 -11 19
-11 11 0 21 -5 23 -10 2 -6 13 -12 26 -13 12 0 22 -4 22 -7 0 -3 15 -11 33
-19 17 -8 41 -21 51 -30 11 -9 16 -10 12 -3 -4 6 -2 12 3 12 6 0 11 -5 11 -12
0 -6 3 -9 6 -5 4 3 19 0 34 -8 15 -8 30 -11 34 -8 3 4 6 1 6 -5 0 -7 8 -12 18
-12 10 0 24 -6 31 -12 11 -11 12 -10 6 2 -8 13 -6 13 8 2 9 -8 20 -11 26 -8 5
4 17 -1 25 -10 12 -11 16 -12 16 -2 0 9 3 9 8 2 4 -6 19 -10 35 -10 15 1 27
-3 27 -9 0 -6 17 -11 40 -10 22 1 40 -4 40 -9 0 -6 5 -4 10 4 8 13 10 12 10
-4 0 -14 3 -16 13 -7 8 6 17 8 20 5 3 -3 21 -7 40 -8 18 -2 39 -6 45 -10 6 -3
13 -2 16 3 8 12 30 8 52 -9 10 -8 15 -10 11 -3 -5 8 2 11 23 9 16 -1 32 -5 35
-8 4 -3 20 -2 36 2 18 5 29 5 29 -1 0 -6 6 -7 13 -2 20 13 78 12 71 -1 -3 -6
1 -3 8 6 9 10 19 13 27 9 7 -5 31 -4 54 1 22 5 46 7 54 4 7 -3 13 -1 13 5 0 5
11 7 25 5 15 -3 23 -1 19 5 -3 6 5 8 21 5 14 -3 44 2 67 10 23 8 43 12 46 9 3
-2 11 3 19 13 8 9 12 11 8 5 -3 -7 -1 -13 4 -13 6 0 11 5 11 11 0 5 4 8 9 4 5
-3 20 -1 33 4 50 20 64 25 80 26 10 1 24 8 33 15 8 7 15 9 15 5 0 -4 6 -2 13
4 8 6 17 8 20 4 4 -3 7 0 7 7 0 7 3 10 6 7 4 -3 16 -1 28 5 11 7 24 11 29 10
4 -1 7 3 7 9 0 6 7 8 16 5 10 -4 13 -2 8 6 -5 8 -2 9 10 5 9 -4 15 -3 12 1 -3
5 10 15 29 24 21 9 32 11 29 4 -3 -6 2 -2 11 9 9 11 20 21 25 21 6 1 13 3 18
4 4 1 11 2 15 1 5 -1 6 3 3 8 -4 5 3 12 14 16 11 3 20 11 20 16 0 6 4 7 10 4
5 -3 19 3 31 14 12 11 27 18 32 14 6 -3 7 -1 3 5 -4 7 -3 12 3 12 6 0 19 10
31 22 11 12 20 19 20 15 0 -4 14 6 31 23 17 16 37 27 43 23 6 -3 8 -3 4 1 -9
10 50 68 62 61 6 -4 9 -3 8 2 -2 5 17 29 42 53 25 24 45 47 45 50 0 10 43 48
49 42 6 -5 10 13 7 31 0 4 5 6 11 5 7 -2 12 5 12 14 -1 10 1 16 5 14 3 -2 12
2 19 10 7 8 10 14 7 14 -3 0 6 11 21 25 15 14 23 25 18 25 -5 0 -1 7 10 15 10
8 15 19 10 26 -5 9 -2 10 9 6 9 -3 16 -3 15 1 -2 13 15 47 30 58 8 6 12 16 9
21 -4 6 0 14 9 17 8 3 12 10 9 16 -3 5 -2 10 2 10 5 0 14 9 21 21 11 17 11 20
0 14 -7 -4 -6 -1 2 7 20 17 44 69 41 87 -1 8 2 10 10 5 9 -5 10 -2 6 10 -4 10
-1 19 9 23 8 3 13 12 10 19 -3 8 -1 14 5 14 6 0 7 5 4 10 -3 6 -2 10 4 10 5 0
8 9 6 20 -2 12 2 23 10 27 8 3 12 9 9 14 -3 6 0 16 6 24 6 8 9 19 5 25 -3 5
-1 10 5 10 6 0 8 5 5 10 -4 6 -2 17 4 24 7 8 13 28 14 45 1 17 5 31 10 31 4 0
7 14 7 31 0 16 3 28 8 26 4 -3 7 19 7 48 0 29 3 51 6 49 6 -3 9 22 12 94 1 20
6 31 14 28 7 -3 10 1 6 9 -3 8 -8 13 -12 11 -3 -2 -6 6 -6 19 0 13 3 21 8 18
4 -2 5 6 3 19 -2 13 1 28 6 35 5 7 5 14 -1 17 -7 4 -7 15 -1 30 5 13 6 26 4
29 -11 11 -11 43 0 56 8 11 8 13 0 8 -11 -6 -14 11 -14 92 0 13 -6 31 -12 39
-11 13 -11 14 0 8 9 -5 11 -1 8 16 -3 13 -5 23 -6 23 -1 0 -4 14 -6 30 -6 50
-12 89 -19 115 -3 14 -7 30 -9 37 -1 7 -5 16 -9 19 -4 4 -7 19 -7 34 0 14 -6
32 -12 39 -11 11 -10 12 1 6 9 -5 8 0 -3 17 -9 14 -13 28 -9 31 3 4 1 7 -6 7
-7 0 -10 4 -7 8 2 4 -4 27 -15 51 -10 24 -17 47 -14 51 3 5 2 10 -3 12 -10 4
-57 100 -54 111 1 4 -2 7 -8 7 -5 0 -10 9 -10 20 0 11 -5 20 -11 20 -5 0 -7 5
-4 10 3 6 1 10 -5 10 -6 0 -8 5 -5 10 3 6 2 10 -3 10 -5 0 -19 20 -32 45 -12
24 -27 42 -32 39 -5 -3 -8 -2 -7 3 3 18 -2 29 -26 57 -13 16 -22 33 -18 39 3
6 1 7 -5 3 -7 -4 -12 -1 -12 9 0 9 -4 13 -10 10 -5 -3 -10 1 -10 9 0 9 -5 16
-11 16 -5 0 -7 5 -4 10 3 6 -1 13 -9 16 -9 3 -13 10 -10 15 3 5 2 9 -3 8 -20
-3 -34 2 -28 11 3 6 1 10 -4 10 -6 0 -11 7 -11 16 0 8 -3 13 -7 11 -10 -6 -34
19 -26 27 4 3 1 6 -6 6 -7 0 -9 5 -6 10 3 6 0 10 -7 10 -8 0 -25 13 -38 30
-14 16 -31 29 -37 30 -7 0 -13 8 -13 17 0 9 -3 13 -6 10 -4 -3 -19 7 -34 23
-16 17 -32 30 -37 30 -5 0 -16 8 -24 18 -22 24 -59 48 -70 45 -5 -2 -9 3 -9
11 0 8 -9 18 -20 21 -11 3 -20 11 -20 16 0 6 -4 8 -9 4 -6 -3 -14 3 -20 12 -6
11 -11 13 -11 5 0 -10 -3 -10 -14 0 -8 7 -12 16 -10 20 3 4 -5 5 -16 3 -13 -2
-20 1 -20 11 0 8 -4 12 -10 9 -5 -3 -10 -1 -10 5 0 6 -4 8 -10 5 -5 -3 -10 -1
-10 5 0 6 -4 8 -10 5 -5 -3 -10 -2 -10 3 0 6 -11 13 -25 16 -14 4 -25 11 -25
17 0 6 -5 7 -10 4 -6 -4 -17 -1 -25 5 -8 7 -15 9 -15 4 0 -5 -5 -2 -10 8 -6 9
-18 15 -27 14 -9 -2 -25 4 -34 12 -16 14 -28 18 -76 24 -7 1 -13 6 -13 11 0 6
-3 7 -7 4 -3 -4 -17 0 -31 9 -17 11 -22 12 -16 3 6 -11 5 -12 -7 -2 -9 7 -30
13 -47 15 -18 1 -32 5 -32 8 0 4 -6 7 -12 8 -39 5 -55 9 -66 16 -6 4 -12 5
-12 2 0 -3 -12 -1 -26 4 -18 7 -23 7 -18 -1 4 -8 0 -8 -15 0 -11 7 -21 8 -21
4 0 -4 -5 -2 -11 4 -6 6 -18 9 -25 6 -8 -3 -22 1 -31 8 -12 10 -15 10 -9 2 9
-16 -6 -17 -22 -1 -9 9 -12 9 -12 -2 0 -11 -3 -11 -12 -2 -7 7 -17 8 -29 2
-10 -6 -20 -6 -23 -1 -3 5 -19 7 -36 6 -17 -1 -33 1 -36 6 -3 5 -13 5 -22 0
-11 -6 -24 -6 -34 0 -9 5 -19 6 -21 2z"/>
</g>
</svg>
